<?xml version="1.0" encoding="UTF-8"?>
<svg xmlns="http://www.w3.org/2000/svg" xmlns:xlink="http://www.w3.org/1999/xlink" viewBox="0 0 50 50" width="50px" height="50px">
<g id="surface36846997">
<path style="fill-rule:nonzero;fill:rgb(79.607844%,25.098041%,18.82353%);fill-opacity:1;stroke-width:5;stroke-linecap:butt;stroke-linejoin:round;stroke:rgb(78.823531%,76.862746%,76.862746%);stroke-opacity:1;stroke-miterlimit:10;" d="M 163.818608 144.436535 C 162.781764 145.556327 159.187371 149.109246 157.70814 150.090792 C 156.228909 151.099987 155.122942 151.805041 153.1875 153.063078 C 151.265882 154.321116 150.049318 155.772698 148.528613 156.768068 C 147.339699 157.583719 147.159979 156.947788 146.745241 156.311857 C 146.330504 155.68975 145.570151 154.141396 145.376607 153.546939 C 145.196887 152.952482 144.975694 152.620691 144.45036 152.247428 C 143.93885 151.874164 142.570216 150.173739 142.349022 149.731352 C 142.127829 149.288966 141.533372 148.805105 141.008037 148.514789 C 140.496527 148.210648 139.39056 146.731417 138.644033 146.067837 C 137.911329 145.404256 137.358346 145.141589 136.19708 145.072466 C 135.063464 144.989519 134.233989 144.215342 133.653356 143.772955 C 133.058899 143.330568 130.985211 141.892811 130.100437 141.173932 C 129.215663 140.468878 128.400012 140.026491 127.736432 139.971193 C 127.059027 139.888245 126.174254 139.183191 125.28948 138.588734 C 124.404706 138.008101 120.43705 134.966692 119.59375 134.330761 C 118.736625 133.708654 115.446373 131.524369 114.520126 131.081983 C 113.593878 130.639596 112.073174 129.630401 111.561664 129.423032 C 111.036329 129.188014 110.635416 129.229488 110.123907 129.118891 C 109.598572 128.99447 108.852044 128.787101 107.303691 128.48296 C 104.524948 128.344714 102.354488 127.515239 100.750836 126.893132 C 99.174833 126.257201 92.566679 123.492284 90.133552 122.676633 C 87.6866 121.860982 86.566808 121.722736 84.838734 121.086805 C 83.428626 120.561471 82.101466 119.5661 81.617605 119.607574 C 81.147569 119.635223 77.373457 121.570666 75.147698 122.897826 C 70.792952 125.662744 65.746978 128.220293 63.341499 129.436857 C 60.12037 131.095807 59.207947 131.192579 58.309349 131.82851 C 57.908436 132.105002 54.687307 134.593428 53.982253 135.077289 C 53.277199 135.561149 50.111368 137.648662 48.065329 138.851401 C 45.493956 140.330632 44.540059 140.662422 43.240548 141.547196 C 41.31893 142.984953 35.913516 147.353523 35.512603 147.726787 C 35.097865 148.100051 34.061021 147.837384 33.770705 147.657664 C 33.466564 147.46412 33.024177 148.238297 32.111754 148.680684 C 31.697016 148.984825 31.365226 149.275141 31.185507 149.123071 C 31.005787 148.984825 30.660172 149.164544 30.259259 149.510159 C 29.858346 149.841949 29.139468 150.090792 29.042695 150.394933 C 28.932099 150.685249 28.697081 151.030864 28.337641 151.16911 C 27.964377 151.32118 27.21785 152.095357 26.85841 152.883359 C 26.485147 153.643711 25.932163 154.36259 25.337706 154.459362 C 24.757073 154.569958 24.328511 155.053819 24.010545 155.606803 C 23.678755 156.173611 23.526685 156.339506 23.153421 156.339506 C 22.752508 156.615997 23.194894 157.251929 21.784786 158.205825 C 20.678819 159.021476 19.310185 158.537615 18.63278 158.385545 C 17.983025 158.233474 16.268776 158.496142 15.494599 158.980002 C 14.720422 159.463863 13.821824 160.016846 12.27347 159.823302 C 10.725116 159.643582 10.006237 159.187371 9.536201 158.689686 C 9.052341 158.164351 7.559285 156.726594 7.0616 155.606803 C 6.536265 154.487011 7.351916 153.284272 8.043146 152.911008 C 8.762024 152.523919 10.047711 151.83269 10.490098 151.83269 C 10.932485 151.83269 11.347222 151.611496 11.789609 151.570023 C 12.231996 151.528549 12.563786 151.570023 13.08912 151.5009 C 13.60063 151.431777 14.886317 150.685249 15.453125 150.505529 C 16.006108 150.311985 16.849408 150.159915 17.927726 149.800475 C 18.8125 149.606931 18.618956 149.053948 18.618956 148.79128 C 18.618956 148.542438 18.853974 148.155349 19.296361 147.865033 C 19.738747 147.574717 20.374678 147.547067 20.664995 147.61619 C 20.969136 147.685313 20.817065 146.869663 20.775592 146.759066 C 20.747942 146.662294 20.374678 146.358153 20.374678 146.067837 C 20.374678 145.749871 20.512924 145.348958 20.305556 145.058642 C 20.070538 144.768325 19.821695 144.063271 19.821695 143.814429 C 19.821695 143.537937 20.070538 142.846707 20.512924 142.846707 C 20.706469 142.91583 21.300926 143.814429 21.383873 144.726851 C 21.452996 145.653099 22.033629 146.095486 22.379244 146.026363 C 22.697209 145.943415 22.918403 145.459555 23.070473 145.210712 C 23.222544 144.948045 23.734053 143.952674 24.217914 143.980324 C 24.701775 144.021797 25.033565 144.768325 25.393004 144.699202 C 25.766268 144.616255 26.360725 143.814429 26.360725 143.814429 C 26.250129 143.42734 26.111883 142.694637 26.443673 142.542566 C 26.761638 142.390496 26.913709 142.43197 28.21322 140.883616 C 30.217785 138.409015 35.844393 133.556584 38.871978 131.441422 C 41.913387 129.340085 46.973187 126.741062 48.383295 126.215728 C 48.507716 126.077482 48.88098 125.994534 49.143647 125.593621 C 49.807227 124.833269 50.498457 124.169688 50.747299 124.045267 C 51.05144 123.893197 51.673547 123.395511 53.24955 123.132844 C 53.650463 122.994598 53.996078 122.856353 54.106674 122.676633 C 57.756366 117.298868 63.147955 112.667631 63.963606 112.197595 C 64.82073 111.713734 64.931327 111.174575 65.373714 110.49717 C 65.816101 109.83359 67.115612 109.653871 67.668595 109.432677 C 68.221579 109.211484 69.673161 107.773727 69.783758 107.289866 C 69.894354 106.806005 69.562564 104.704668 69.825231 102.520383 C 70.074074 100.170203 71.663902 99.686342 72.783693 99.548096 C 72.963413 99.174833 73.848187 98.110339 74.22145 97.515882 C 74.497942 97.059671 74.000257 95.995177 73.751414 95.331597 C 73.474923 94.654192 73.322852 93.700296 73.322852 93.174961 C 73.322852 92.663451 72.590149 92.442258 72.078639 91.446888 C 71.691551 90.686535 72.037165 90.175025 71.926569 89.926183 C 71.815972 89.663516 71.304462 89.331726 70.0326 87.479231 C 68.774563 85.626736 68.816036 85.806456 68.373649 85.806456 C 67.931263 85.806456 67.737718 86.400913 67.184735 87.188914 C 66.631751 87.963091 65.968171 87.99074 65.567258 88.17046 C 65.15252 88.364004 64.66866 89.663516 63.452096 92.221065 C 62.235532 94.778613 58.309349 97.626479 57.161908 98.317708 C 56.000643 99.022762 54.383166 101.842978 53.91313 103.031893 C 53.429269 104.206983 53.056006 106.045653 53.152778 106.570987 C 53.277199 107.096322 53.056006 108.285236 53.097479 108.644676 C 53.125128 109.01794 53.830182 109.68152 54.120499 109.68152 C 54.42464 109.68152 55.641204 109.722994 55.461484 110.566293 C 55.26794 111.423418 53.567515 111.423418 52.793338 111.133102 C 52.019161 110.828961 50.857896 109.570923 50.609053 109.570923 C 50.346386 109.570923 49.420139 110.16538 48.756559 111.423418 C 48.092978 112.667631 47.235854 112.778228 46.904064 112.750578 C 46.572274 112.709105 46.240483 112.308192 46.461677 111.934928 C 46.68287 111.575488 47.360275 110.67689 47.166731 110.441872 C 46.973187 110.220679 44.802726 111.257523 43.572338 111.603138 C 42.355774 111.934928 41.581597 111.67226 41.581597 111.451067 C 41.581597 111.229874 41.360404 110.815136 42.687564 110.414223 C 44.014725 110.01331 44.650656 108.976466 44.470936 108.796746 C 44.277392 108.603202 43.351144 109.418853 41.802791 109.612397 C 40.627701 109.778292 37.060957 109.640046 37.213027 108.893518 C 37.351273 108.160815 38.471065 108.340535 40.503279 108.119341 C 42.549318 107.898148 43.282021 107.234568 44.650656 106.570987 C 46.01929 105.907407 46.364905 105.423547 46.572274 105.091756 C 46.793467 104.759966 47.056134 104.359053 47.85796 103.640175 C 48.687436 102.948945 49.613683 101.594136 49.862526 101.303819 C 50.125193 101.013503 50.20814 100.501993 50.415509 99.949009 C 50.650527 99.382201 51.466178 97.944444 51.576775 97.543531 C 51.687371 97.128793 53.304848 94.170332 54.341692 92.469907 C 55.378536 90.769483 58.309349 87.188914 58.309349 87.188914 C 59.042052 84.327225 59.885352 83.705118 60.272441 83.069187 C 61.336934 82.101466 61.599601 81.147569 61.972865 80.442515 C 62.332304 79.737461 63.631816 77.41493 64.00508 76.848122 C 64.378343 76.295139 64.641011 75.368891 65.18017 74.705311 C 66.493505 72.880465 68.594843 72.783693 68.594843 72.783693 C 68.594843 72.783693 69.479617 71.843621 69.894354 71.484182 C 70.295267 71.110918 70.737654 70.516461 70.779128 70.309092 C 70.820602 70.074074 70.8759 69.673161 71.138567 69.438143 C 71.663902 68.788387 70.917374 68.346 70.654707 68.110982 C 70.405864 67.903613 67.253858 65.677855 67.737718 62.207883 C 68.221579 58.724087 70.54411 57.023662 71.843621 56.166538 C 73.253729 55.226466 75.037101 55.254115 75.037101 55.254115 C 77.511702 55.337063 78.76974 56.484503 79.543917 57.369277 C 79.834233 57.756366 80.663709 57.991384 80.954025 58.295525 C 81.258166 58.585841 81.534658 58.641139 82.350308 58.889982 C 83.165959 59.152649 83.207433 59.553562 83.179784 59.926826 C 83.13831 60.30009 82.861818 60.63188 82.95859 60.742477 C 83.069187 60.839249 83.539223 60.96367 83.691293 61.240162 C 83.843364 61.489004 83.98161 61.489004 84.050733 62.263181 C 84.285751 61.889918 85.170524 60.562757 85.654385 60.078896 C 86.124421 59.595036 87.202739 58.751736 87.313336 58.184928 C 87.423932 57.631944 88.156636 54.93615 88.377829 54.42464 C 88.612847 53.899305 88.668145 52.862461 89.096708 51.977688 C 89.387024 51.618248 89.497621 50.346386 89.414673 49.765753 C 89.34555 49.171296 89.539094 47.761188 89.787937 47.360275 C 90.064429 46.931713 90.313271 46.19901 90.603588 45.756623 C 90.866255 45.563079 90.907729 44.719779 90.949202 44.360339 C 90.976852 43.987075 91.087448 42.715213 91.391589 42.023984 C 91.681906 41.31893 92.124292 39.424961 92.193415 39.024048 C 92.276363 38.623135 92.469907 38.180748 93.05054 37.79366 C 93.354681 36.867412 94.267104 32.443544 94.446823 31.544946 C 94.640368 30.646348 94.681841 29.885995 94.529771 29.512731 C 94.391525 29.139468 94.115033 28.586484 94.115033 28.282343 C 94.115033 27.992027 93.824717 27.21785 93.644997 26.88606 C 93.451453 26.554269 92.912294 25.586548 92.787873 25.185635 C 92.677276 24.770898 92.38696 24.439107 92.151942 24.065844 C 92.02752 23.858475 91.861625 23.264017 91.737204 22.780157 C 91.115097 21.591242 90.769483 20.264082 90.769483 18.840149 C 90.769483 14.139789 94.585069 10.324203 99.285429 10.324203 C 103.999614 10.324203 107.829025 14.139789 107.829025 18.840149 C 107.829025 23.554334 103.999614 27.356096 99.285429 27.356096 C 99.202482 27.356096 99.10571 27.356096 98.995113 27.342271 C 98.884516 27.480517 98.760095 27.674061 98.649498 27.964377 C 99.230131 28.8768 99.202482 29.291538 99.202482 29.803048 C 99.202482 30.328382 98.787744 31.282279 98.677147 32.58179 C 98.566551 33.881301 98.207111 39.176119 98.207111 39.176119 C 98.207111 39.176119 98.497428 39.659979 98.455954 39.950296 C 98.41448 40.240612 98.345357 41.719843 98.124164 43.033179 C 97.90297 44.318866 97.861497 44.968621 97.681777 45.798097 C 97.488233 46.613747 96.561985 46.765818 96.561985 46.765818 C 96.561985 46.765818 96.313143 48.424768 95.801633 51.203511 C 95.276299 53.982253 94.571245 54.09285 94.460648 56.000643 C 94.350051 57.936085 93.797068 58.682613 93.71412 59.415316 C 93.644997 60.161844 94.004436 61.779321 93.423804 63.97743 C 92.829346 66.147891 91.944573 68.028035 91.612783 69.106353 C 91.280993 70.184671 91.474537 72.631623 92.124292 75.327417 C 92.801697 78.037037 93.71412 79.253601 94.350051 80.483989 C 94.972158 81.686728 95.414544 82.543853 95.608089 88.35018 C 95.801633 94.156507 94.903035 98.538901 94.571245 99.893711 C 94.681841 100.266975 95.829282 102.824524 95.829282 102.824524 C 95.829282 102.824524 96.313143 103.018068 97.004372 103.501929 C 97.723251 103.985789 99.492798 105.271476 99.700167 106.114776 C 99.935185 106.9719 99.824588 107.925797 99.340728 108.796746 C 99.603395 109.004115 104.898212 111.534015 107.524884 112.971772 C 110.151556 114.409529 114.768968 118.708976 115.059285 119.068415 C 115.363426 119.441679 115.653742 119.552276 116.856481 119.74582 C 118.031571 119.911715 120.948559 121.999228 124.211162 124.072916 C 127.473765 126.13278 132.754758 130.224858 133.722479 131.026684 C 134.980517 132.063528 137.717785 134.02662 139.23849 135.35378 C 140.966563 137.026556 143.27527 138.422839 143.524112 138.561085 C 143.800604 138.713155 144.09092 138.837577 144.007973 139.044946 C 143.93885 139.279964 143.717656 139.763824 143.60706 139.943544 C 143.496463 140.123263 143.60706 140.468878 144.007973 140.800668 C 144.42271 141.118634 145.017168 141.312178 145.307484 141.270704 C 145.611625 141.243055 146.054012 141.395126 146.261381 141.561021 C 146.496399 141.754565 147.049382 142.238426 147.491769 142.238426 C 147.934156 142.238426 148.418017 141.906635 148.611561 141.754565 C 148.79128 141.602494 149.233667 141.201581 149.454861 141.243055 C 149.676054 141.284529 149.897248 141.243055 150.14609 140.952739 C 150.422582 140.648598 151.417952 139.639403 152.109182 139.432034 C 152.82806 139.197016 154.00315 139.197016 153.920203 139.501157 C 153.864904 139.791473 153.146026 140.08179 152.703639 140.316808 C 152.261252 140.538001 151.514724 141.008037 151.072338 141.602494 C 150.629951 142.210776 150.187564 143.012602 149.938721 143.316743 C 149.676054 143.60706 149.745177 143.897376 149.938721 143.897376 C 150.118441 143.897376 151.017039 143.897376 151.459426 143.855902 C 151.901813 143.828253 152.897183 144.007973 153.560763 144.007973 C 154.224344 144.007973 157.182806 143.855902 157.514596 143.828253 C 157.846386 143.800604 158.88323 143.316743 159.284143 143.012602 C 159.698881 142.722286 161.855517 141.312178 162.519097 141.312178 C 163.168852 141.312178 164.841628 142.238426 165.062821 142.528742 C 165.284014 142.832883 164.841628 143.316743 163.818608 144.436535 Z M 163.818608 144.436535 " transform="matrix(0.282558,0,0,0.282558,0.7,0.7)"/>
<path style=" stroke:none;fill-rule:nonzero;fill:rgb(79.607844%,25.098041%,18.82353%);fill-opacity:1;" d="M 47.339844 40.972656 C 47.277344 40.890625 46.804688 40.628906 46.621094 40.628906 C 46.433594 40.628906 45.824219 41.027344 45.707031 41.109375 C 45.59375 41.195312 45.300781 41.332031 45.207031 41.339844 C 45.113281 41.347656 44.277344 41.390625 44.089844 41.390625 C 43.902344 41.390625 43.621094 41.339844 43.496094 41.347656 C 43.371094 41.359375 43.117188 41.359375 43.066406 41.359375 C 43.011719 41.359375 42.992188 41.277344 43.066406 41.195312 C 43.136719 41.109375 43.261719 40.882812 43.386719 40.710938 C 43.511719 40.542969 43.722656 40.410156 43.847656 40.347656 C 43.972656 40.28125 44.175781 40.199219 44.191406 40.117188 C 44.214844 40.03125 43.882812 40.03125 43.679688 40.097656 C 43.484375 40.15625 43.203125 40.441406 43.125 40.527344 C 43.054688 40.609375 42.992188 40.621094 42.929688 40.609375 C 42.867188 40.597656 42.742188 40.710938 42.691406 40.753906 C 42.636719 40.796875 42.5 40.890625 42.375 40.890625 C 42.25 40.890625 42.09375 40.753906 42.027344 40.699219 C 41.96875 40.652344 41.84375 40.609375 41.757812 40.617188 C 41.675781 40.628906 41.507812 40.574219 41.390625 40.484375 C 41.277344 40.390625 41.246094 40.292969 41.277344 40.242188 C 41.308594 40.191406 41.371094 40.054688 41.390625 39.988281 C 41.414062 39.929688 41.332031 39.894531 41.253906 39.851562 C 41.183594 39.8125 40.53125 39.417969 40.042969 38.945312 C 39.613281 38.570312 38.839844 38.015625 38.484375 37.722656 C 38.210938 37.496094 36.71875 36.339844 35.796875 35.757812 C 34.875 35.171875 34.050781 34.582031 33.71875 34.535156 C 33.378906 34.480469 33.296875 34.449219 33.210938 34.34375 C 33.128906 34.242188 31.824219 33.027344 31.082031 32.621094 C 30.339844 32.214844 28.84375 31.5 28.769531 31.441406 C 28.90625 31.195312 28.9375 30.925781 28.871094 30.683594 C 28.8125 30.445312 28.3125 30.082031 28.109375 29.945312 C 27.914062 29.808594 27.777344 29.753906 27.777344 29.753906 C 27.777344 29.753906 27.453125 29.03125 27.421875 28.925781 C 27.515625 28.542969 27.769531 27.304688 27.714844 25.664062 C 27.660156 24.023438 27.535156 23.78125 27.359375 23.441406 C 27.179688 23.09375 26.921875 22.75 26.730469 21.984375 C 26.546875 21.222656 26.492188 20.53125 26.585938 20.226562 C 26.679688 19.921875 26.929688 19.390625 27.097656 18.777344 C 27.261719 18.15625 27.160156 17.699219 27.179688 17.488281 C 27.203125 17.28125 27.359375 17.070312 27.390625 16.523438 C 27.421875 15.984375 27.621094 15.953125 27.769531 15.167969 C 27.914062 14.382812 27.984375 13.914062 27.984375 13.914062 C 27.984375 13.914062 28.246094 13.871094 28.300781 13.640625 C 28.351562 13.40625 28.363281 13.222656 28.425781 12.859375 C 28.488281 12.488281 28.507812 12.070312 28.519531 11.988281 C 28.53125 11.90625 28.449219 11.769531 28.449219 11.769531 C 28.449219 11.769531 28.550781 10.273438 28.582031 9.90625 C 28.613281 9.539062 28.730469 9.269531 28.730469 9.121094 C 28.730469 8.976562 28.738281 8.859375 28.574219 8.601562 C 28.605469 8.519531 28.640625 8.464844 28.671875 8.425781 C 28.703125 8.429688 28.730469 8.429688 28.753906 8.429688 C 30.085938 8.429688 31.167969 7.355469 31.167969 6.023438 C 31.167969 4.695312 30.085938 3.617188 28.753906 3.617188 C 27.425781 3.617188 26.347656 4.695312 26.347656 6.023438 C 26.347656 6.425781 26.445312 6.800781 26.621094 7.136719 C 26.65625 7.273438 26.703125 7.441406 26.738281 7.5 C 26.804688 7.605469 26.886719 7.699219 26.917969 7.816406 C 26.953125 7.929688 27.105469 8.203125 27.160156 8.296875 C 27.210938 8.390625 27.292969 8.609375 27.292969 8.691406 C 27.292969 8.777344 27.371094 8.933594 27.410156 9.039062 C 27.453125 9.144531 27.441406 9.359375 27.386719 9.613281 C 27.335938 9.867188 27.078125 11.117188 26.992188 11.378906 C 26.828125 11.488281 26.773438 11.613281 26.75 11.726562 C 26.730469 11.839844 26.605469 12.375 26.523438 12.574219 C 26.4375 12.769531 26.40625 13.128906 26.398438 13.234375 C 26.386719 13.335938 26.375 13.574219 26.300781 13.628906 C 26.21875 13.753906 26.148438 13.960938 26.070312 14.082031 C 26 14.195312 25.945312 14.59375 25.964844 14.761719 C 25.988281 14.925781 25.957031 15.285156 25.875 15.386719 C 25.753906 15.636719 25.738281 15.929688 25.671875 16.078125 C 25.609375 16.222656 25.402344 16.984375 25.371094 17.140625 C 25.339844 17.300781 25.035156 17.539062 24.902344 17.675781 C 24.765625 17.8125 24.515625 18.1875 24.449219 18.292969 C 24.429688 18.074219 24.390625 18.074219 24.347656 18.003906 C 24.304688 17.925781 24.171875 17.890625 24.140625 17.863281 C 24.113281 17.832031 24.191406 17.738281 24.203125 17.632812 C 24.210938 17.527344 24.199219 17.414062 23.96875 17.339844 C 23.738281 17.269531 23.660156 17.253906 23.574219 17.171875 C 23.492188 17.085938 23.257812 17.019531 23.175781 16.910156 C 22.957031 16.660156 22.601562 16.335938 21.902344 16.3125 C 21.902344 16.3125 21.398438 16.304688 21 16.570312 C 20.632812 16.8125 19.976562 17.292969 19.839844 18.277344 C 19.703125 19.257812 20.59375 19.886719 20.664062 19.945312 C 20.738281 20.011719 20.949219 20.136719 20.800781 20.320312 C 20.726562 20.386719 20.710938 20.5 20.699219 20.566406 C 20.6875 20.625 20.5625 20.792969 20.449219 20.898438 C 20.332031 21 20.082031 21.265625 20.082031 21.265625 C 20.082031 21.265625 19.488281 21.292969 19.117188 21.808594 C 18.964844 21.996094 18.890625 22.257812 18.785156 22.414062 C 18.679688 22.574219 18.3125 23.230469 18.210938 23.429688 C 18.105469 23.628906 18.03125 23.898438 17.730469 24.171875 C 17.621094 24.351562 17.382812 24.527344 17.175781 25.335938 C 17.175781 25.335938 16.347656 26.347656 16.054688 26.828125 C 15.761719 27.308594 15.304688 28.144531 15.273438 28.261719 C 15.242188 28.375 15.011719 28.78125 14.945312 28.941406 C 14.886719 29.097656 14.863281 29.242188 14.789062 29.324219 C 14.71875 29.40625 14.457031 29.789062 14.222656 29.984375 C 13.996094 30.1875 13.921875 30.300781 13.859375 30.394531 C 13.800781 30.488281 13.703125 30.625 13.316406 30.8125 C 12.929688 31 12.722656 31.1875 12.144531 31.25 C 11.570312 31.3125 11.253906 31.261719 11.214844 31.46875 C 11.171875 31.679688 12.179688 31.71875 12.511719 31.671875 C 12.949219 31.617188 13.210938 31.386719 13.265625 31.441406 C 13.316406 31.492188 13.136719 31.785156 12.761719 31.898438 C 12.386719 32.011719 12.449219 32.128906 12.449219 32.191406 C 12.449219 32.253906 12.667969 32.328125 13.011719 32.234375 C 13.359375 32.136719 13.972656 31.84375 14.027344 31.90625 C 14.082031 31.972656 13.890625 32.226562 13.828125 32.328125 C 13.765625 32.433594 13.859375 32.546875 13.953125 32.558594 C 14.046875 32.566406 14.289062 32.535156 14.476562 32.183594 C 14.664062 31.828125 14.925781 31.660156 15 31.660156 C 15.070312 31.660156 15.398438 32.015625 15.617188 32.101562 C 15.835938 32.183594 16.316406 32.183594 16.371094 31.941406 C 16.421875 31.703125 16.078125 31.691406 15.992188 31.691406 C 15.910156 31.691406 15.710938 31.503906 15.703125 31.398438 C 15.691406 31.296875 15.753906 30.960938 15.71875 30.8125 C 15.691406 30.664062 15.796875 30.144531 15.933594 29.8125 C 16.066406 29.476562 16.523438 28.679688 16.851562 28.480469 C 17.175781 28.285156 18.285156 27.480469 18.628906 26.757812 C 18.972656 26.035156 19.109375 25.667969 19.226562 25.613281 C 19.339844 25.5625 19.527344 25.554688 19.683594 25.335938 C 19.839844 25.113281 19.894531 24.945312 20.019531 24.945312 C 20.144531 24.945312 20.132812 24.894531 20.488281 25.417969 C 20.847656 25.941406 20.992188 26.035156 21.023438 26.109375 C 21.054688 26.179688 20.957031 26.324219 21.066406 26.539062 C 21.210938 26.820312 21.417969 26.882812 21.417969 27.027344 C 21.417969 27.175781 21.460938 27.445312 21.539062 27.636719 C 21.609375 27.824219 21.75 28.125 21.671875 28.253906 C 21.566406 28.421875 21.316406 28.722656 21.265625 28.828125 C 20.949219 28.867188 20.5 29.003906 20.429688 29.667969 C 20.355469 30.285156 20.449219 30.878906 20.417969 31.015625 C 20.386719 31.152344 19.976562 31.558594 19.820312 31.621094 C 19.664062 31.683594 19.296875 31.734375 19.171875 31.921875 C 19.046875 32.113281 19.015625 32.265625 18.773438 32.402344 C 18.542969 32.535156 17.019531 33.84375 15.988281 35.363281 C 15.957031 35.414062 15.859375 35.453125 15.746094 35.492188 C 15.300781 35.566406 15.125 35.707031 15.039062 35.75 C 14.96875 35.785156 14.773438 35.972656 14.585938 36.1875 C 14.511719 36.300781 14.40625 36.324219 14.371094 36.363281 C 13.972656 36.511719 12.542969 37.246094 11.683594 37.839844 C 10.828125 38.4375 9.238281 39.808594 8.671875 40.507812 C 8.304688 40.945312 8.261719 40.933594 8.171875 40.976562 C 8.078125 41.019531 8.117188 41.226562 8.148438 41.335938 C 8.148438 41.335938 7.980469 41.5625 7.875 41.585938 C 7.773438 41.605469 7.679688 41.394531 7.542969 41.382812 C 7.40625 41.375 7.261719 41.65625 7.21875 41.730469 C 7.175781 41.800781 7.113281 41.9375 7.023438 41.960938 C 6.925781 41.980469 6.761719 41.855469 6.742188 41.59375 C 6.71875 41.335938 6.550781 41.082031 6.496094 41.0625 C 6.371094 41.0625 6.300781 41.257812 6.300781 41.335938 C 6.300781 41.40625 6.371094 41.605469 6.4375 41.6875 C 6.496094 41.769531 6.457031 41.882812 6.457031 41.972656 C 6.457031 42.054688 6.5625 42.140625 6.570312 42.167969 C 6.582031 42.199219 6.625 42.429688 6.539062 42.410156 C 6.457031 42.390625 6.277344 42.398438 6.152344 42.480469 C 6.027344 42.5625 5.960938 42.671875 5.960938 42.742188 C 5.960938 42.816406 6.015625 42.972656 5.765625 43.027344 C 5.460938 43.128906 5.222656 43.171875 5.066406 43.226562 C 4.90625 43.277344 4.542969 43.488281 4.398438 43.507812 C 4.25 43.527344 4.15625 43.515625 4.03125 43.527344 C 3.90625 43.539062 3.789062 43.601562 3.664062 43.601562 C 3.539062 43.601562 3.175781 43.796875 2.972656 43.90625 C 2.777344 44.011719 2.546875 44.351562 2.695312 44.667969 C 2.835938 44.984375 3.257812 45.390625 3.394531 45.539062 C 3.527344 45.679688 3.730469 45.808594 4.167969 45.859375 C 4.605469 45.914062 4.859375 45.757812 5.078125 45.621094 C 5.296875 45.484375 5.78125 45.410156 5.964844 45.453125 C 6.15625 45.496094 6.542969 45.632812 6.855469 45.402344 C 7.253906 45.132812 7.128906 44.953125 7.242188 44.875 C 7.347656 44.875 7.390625 44.828125 7.484375 44.667969 C 7.574219 44.511719 7.695312 44.375 7.859375 44.34375 C 8.027344 44.316406 8.183594 44.113281 8.289062 43.898438 C 8.390625 43.675781 8.601562 43.457031 8.707031 43.414062 C 8.808594 43.375 8.875 43.277344 8.90625 43.195312 C 8.933594 43.109375 9.136719 43.039062 9.25 42.945312 C 9.363281 42.847656 9.460938 42.796875 9.511719 42.835938 C 9.5625 42.878906 9.65625 42.796875 9.773438 42.710938 C 10.03125 42.585938 10.15625 42.367188 10.242188 42.421875 C 10.324219 42.472656 10.617188 42.546875 10.734375 42.441406 C 10.847656 42.335938 12.375 41.101562 12.917969 40.695312 C 13.285156 40.445312 13.554688 40.351562 14.28125 39.933594 C 14.859375 39.59375 15.753906 39.003906 15.953125 38.867188 C 16.152344 38.730469 17.0625 38.027344 17.175781 37.949219 C 17.429688 37.769531 17.6875 37.742188 18.597656 37.273438 C 19.277344 36.929688 20.703125 36.207031 21.933594 35.425781 C 22.5625 35.050781 23.628906 34.503906 23.761719 34.496094 C 23.898438 34.484375 24.273438 34.765625 24.671875 34.914062 C 25.160156 35.09375 25.476562 35.132812 26.167969 35.363281 C 26.855469 35.59375 28.722656 36.375 29.167969 36.554688 C 29.621094 36.730469 30.234375 36.964844 31.019531 37.003906 C 31.457031 37.089844 31.667969 37.148438 31.816406 37.183594 C 31.960938 37.214844 32.074219 37.203125 32.222656 37.269531 C 32.367188 37.328125 32.796875 37.613281 33.058594 37.738281 C 33.320312 37.863281 34.25 38.480469 34.492188 38.65625 C 34.730469 38.835938 35.851562 39.695312 36.101562 39.859375 C 36.351562 40.027344 36.601562 40.226562 36.792969 40.25 C 36.980469 40.265625 37.210938 40.390625 37.460938 40.589844 C 37.710938 40.792969 38.296875 41.199219 38.464844 41.324219 C 38.628906 41.449219 38.863281 41.667969 39.183594 41.691406 C 39.511719 41.710938 39.667969 41.785156 39.875 41.972656 C 40.085938 42.160156 40.398438 42.578125 40.542969 42.664062 C 40.691406 42.746094 40.859375 42.882812 40.921875 43.007812 C 40.984375 43.132812 41.371094 43.613281 41.515625 43.71875 C 41.664062 43.824219 41.726562 43.917969 41.777344 44.085938 C 41.832031 44.253906 42.046875 44.691406 42.164062 44.867188 C 42.28125 45.046875 42.332031 45.226562 42.667969 44.996094 C 43.097656 44.714844 43.441406 44.304688 43.984375 43.949219 C 44.53125 43.59375 44.84375 43.394531 45.261719 43.109375 C 45.679688 42.832031 46.695312 41.828125 46.988281 41.511719 C 47.277344 41.195312 47.402344 41.058594 47.339844 40.972656 Z M 47.339844 40.972656 "/>
</g>
</svg>
